# File created by Blade
# Date/Time:  Tue Jan 27 19:32:46 2015
#---------------------------------------------------------
:version 1.10
:name HOM
:units
  mass 1.0
  length 1.000000
  angle deg
:documentation
     Acclaim Skeleton File
:root
   axis xyz
   order TX TY TZ RX RY RZ
   position 0.000000 0.000000 0.000000
   orientation 0 0 0
:bonedata
   begin
      id 1
      name Spine_dum
      direction 0.000000 1.000000 0.000000
      length 6.116652
      axis 0.0 0.0 0.0 xyz
   end
   begin
      id 2
      name LeftUpLeg_dum
      direction 1.000000 0.000000 0.000000
      length 4.711765
      axis 0.0 0.0 0.0 xyz
   end
   begin
      id 3
      name RightUpLeg_dum
      direction -1.000000 0.000000 0.000000
      length 4.711765
      axis 0.0 0.0 0.0 xyz
   end
   begin
      id 4
      name Spine
      direction 0.000000 1.000000 0.000000
      length 0.000000
      axis 0.0 0.0 0.0 xyz
      dof rx ry rz
   end
   begin
      id 5
      name Spine_dum1
      direction 0.000000 1.000000 0.000000
      length 15.225563
      axis 0.0 0.0 0.0 xyz
   end
   begin
      id 6
      name Spine_dum2
      direction 0.000000 1.000000 0.000000
      length 8.977654
      axis 0.0 0.0 0.0 xyz
   end
   begin
      id 7
      name Spine_dum3
      direction 0.000000 1.000000 0.000000
      length 8.977654
      axis 0.0 0.0 0.0 xyz
   end
   begin
      id 8
      name Head
      direction 0.000000 1.000000 0.000000
      length 4.527550
      axis 0.0 0.0 0.0 xyz
      dof rx ry rz
   end
   begin
      id 9
      name LeftShoulder
      direction 1.000000 0.000000 0.000000
      length 7.110130
      axis 0.0 0.0 -90.0 xyz
      dof rx ry rz
   end
   begin
      id 10
      name LeftArm
      direction 1.000000 0.000000 0.000000
      length 10.398341
      axis 0.0 0.0 -90.0 xyz
      dof rx ry rz
   end
   begin
      id 11
      name LeftForeArm
      direction 1.000000 0.000000 0.000000
      length 8.888997
      axis 0.0 0.0 -90.0 xyz
      dof ry rz rx
   end
   begin
      id 12
      name LeftHand
      direction 0.000000 0.000000 0.000000
      length 0.000000
      axis 0.0 0.0 -90.0 xyz
      dof rx ry rz
   end
   begin
      id 13
      name LeftHand_dum1
      direction 0.000000 0.000000 0.000000
      length 0.000000
      axis 0.0 0.0 -90.0 xyz
   end
   begin
      id 14
      name LeftHand_dum2
      direction 1.000000 0.000000 0.000000
      length 3.937000
      axis 0.0 0.0 -90.0 xyz
   end
   begin
      id 15
      name LeftHandThumb1
      direction 0.000000 0.000000 1.000000
      length 3.937000
      axis 0.0 0.0 -90.0 xyz
      dof rx rz ry
   end
   begin
      id 16
      name RightShoulder
      direction -1.000000 0.000000 0.000000
      length 7.110130
      axis 0.0 0.0 90.0 xyz
      dof rx ry rz
   end
   begin
      id 17
      name RightArm
      direction -1.000000 0.000000 0.000000
      length 10.398341
      axis 0.0 0.0 90.0 xyz
      dof rx ry rz
   end
   begin
      id 18
      name RightForeArm
      direction -1.000000 0.000000 0.000000
      length 8.888997
      axis 0.0 0.0 90.0 xyz
      dof ry rz rx
   end
   begin
      id 19
      name RightHand
      direction 0.000000 0.000000 0.000000
      length 0.000000
      axis 0.0 0.0 90.0 xyz
      dof rx ry rz
   end
   begin
      id 20
      name RightHand_dum1
      direction 0.000000 0.000000 0.000000
      length 0.000000
      axis 0.0 0.0 90.0 xyz
   end
   begin
      id 21
      name RightHand_dum2
      direction -1.000000 0.000000 0.000000
      length 3.937000
      axis 0.0 0.0 90.0 xyz
   end
   begin
      id 22
      name RightHandThumb1
      direction 0.000000 0.000000 1.000000
      length 3.937000
      axis 0.0 0.0 90.0 xyz
      dof rx rz ry
   end
   begin
      id 23
      name LeftUpLeg
      direction 0.000000 -1.000000 0.000000
      length 15.510451
      axis 0.0 0.0 0.0 xyz
      dof rx ry rz
   end
   begin
      id 24
      name LeftLeg
      direction 0.000000 -1.000000 0.000000
      length 14.858061
      axis 0.0 0.0 0.0 xyz
      dof rx ry rz
   end
   begin
      id 25
      name LeftFoot
      direction 0.000000 -0.258819 0.965926
      length 5.128852
      axis 15.0 0.0 0.0 xyz
      dof rx ry rz
   end
   begin
      id 26
      name LeftToeBase
      direction 0.000000 0.000000 1.000000
      length 2.952750
      axis 0.0 0.0 0.0 xyz
      dof rx ry rz
   end
   begin
      id 27
      name RightUpLeg
      direction 0.000000 -1.000000 0.000000
      length 15.510451
      axis 0.0 0.0 0.0 xyz
      dof rx ry rz
   end
   begin
      id 28
      name RightLeg
      direction 0.000000 -1.000000 0.000000
      length 14.858061
      axis 0.0 0.0 0.0 xyz
      dof rx ry rz
   end
   begin
      id 29
      name RightFoot
      direction 0.000000 -0.258819 0.965926
      length 5.128852
      axis 15.0 0.0 0.0 xyz
      dof rx ry rz
   end
   begin
      id 30
      name RightToeBase
      direction 0.000000 0.000000 1.000000
      length 2.952750
      axis 0.0 0.0 0.0 xyz
      dof rx ry rz
   end
:hierarchy
   begin
      root Spine_dum LeftUpLeg_dum RightUpLeg_dum
      Spine_dum Spine
      LeftUpLeg_dum LeftUpLeg
      RightUpLeg_dum RightUpLeg
      Spine Spine_dum1 Spine_dum2 Spine_dum3
      Spine_dum1 Head
      Spine_dum2 LeftShoulder
      Spine_dum3 RightShoulder
      LeftShoulder LeftArm
      LeftArm LeftForeArm
      LeftForeArm LeftHand
      LeftHand LeftHand_dum1 LeftHand_dum2
      LeftHand_dum1 LeftHandThumb1
      RightShoulder RightArm
      RightArm RightForeArm
      RightForeArm RightHand
      RightHand RightHand_dum1 RightHand_dum2
      RightHand_dum1 RightHandThumb1
      LeftUpLeg LeftLeg
      LeftLeg LeftFoot
      LeftFoot LeftToeBase
      RightUpLeg RightLeg
      RightLeg RightFoot
      RightFoot RightToeBase
   end

# File created by Blade
# Date/Time:  Tue Jan 27 19:32:37 2015
# Frame Rate: 120.000 fps
#------------------------------------------------------
:FULLY-SPECIFIED
:DEGREES
1564
root 3.806860 32.206909 -0.187800 -4.838562 -3.643511 -0.684318
Spine 2.061936 6.559422 -1.818610
Head 12.357748 -27.237968 2.392759
LeftShoulder -3.146152 -7.983500 26.311195
LeftArm 0.463434 43.195483 -99.669177
LeftForeArm 1.375884 -0.000000 11.055842
LeftHand 10.225584 0.000000 -5.632030
LeftHandThumb1 -26.253704 0.000000 33.147579
RightShoulder -9.393253 -2.423229 -25.279358
RightArm 16.333193 55.937266 83.688456
RightForeArm 5.035069 -0.000000 122.391434
RightHand 28.058075 -0.000000 -21.843776
RightHandThumb1 -24.326973 -0.000000 -32.862282
LeftUpLeg 11.883713 3.876789 -0.916633
LeftLeg 2.583018 -0.000000 -0.000000
LeftFoot -22.826747 19.185103 -23.781560
LeftToeBase 16.051041 -0.000000 -0.000000
RightUpLeg 9.356462 -6.847409 1.711750
RightLeg 1.463724 -0.000000 -0.000000
RightFoot -12.628756 -11.685505 13.956291
RightToeBase 11.387370 -0.000000 -0.000000
1565
root 3.804418 32.207389 -0.191053 -4.837640 -3.702129 -0.694992
Spine 2.055193 6.604455 -1.814276
Head 12.416058 -27.312022 2.349569
LeftShoulder -3.147648 -7.986641 26.322138
LeftArm 0.529626 43.249251 -99.632588
LeftForeArm 1.358913 -0.000000 11.033014
LeftHand 10.198151 -0.000000 -5.618416
LeftHandThumb1 -26.253704 0.000000 33.147579
RightShoulder -9.318911 -2.369930 -25.279845
RightArm 16.690662 55.820826 84.032976
RightForeArm 5.038420 -0.000000 122.351081
RightHand 28.129044 0.000000 -21.852875
RightHandThumb1 -24.326973 -0.000000 -32.862282
LeftUpLeg 11.890772 3.948603 -0.892109
LeftLeg 2.572153 -0.000000 -0.000000
LeftFoot -22.814194 19.161642 -23.790687
LeftToeBase 16.004755 -0.000000 -0.000000
RightUpLeg 9.340000 -6.831981 1.725472
RightLeg 1.470060 -0.000000 -0.000000
RightFoot -12.600392 -11.656832 13.926074
RightToeBase 11.336462 -0.000000 -0.000000
1566
root 3.801571 32.207547 -0.194045 -4.834034 -3.762435 -0.710536
Spine 2.041901 6.668741 -1.803808
Head 12.480531 -27.398874 2.315761
LeftShoulder -3.133256 -8.034066 26.326617
LeftArm 0.531105 43.268692 -99.628663
LeftForeArm 1.343427 -0.000000 11.035529
LeftHand 10.132835 -0.000000 -5.685810
LeftHandThumb1 -26.253704 0.000000 33.147579
RightShoulder -9.226784 -2.240144 -25.268887
RightArm 17.006878 55.806006 84.317322
RightForeArm 5.011378 -0.000000 122.303678
RightHand 28.241249 -0.000000 -21.731683
RightHandThumb1 -24.326973 -0.000000 -32.862282
LeftUpLeg 11.899460 4.010600 -0.865666
LeftLeg 2.561662 -0.000000 -0.000000
LeftFoot -22.802716 19.139674 -23.803706
LeftToeBase 15.871089 -0.000000 -0.000000
RightUpLeg 9.327414 -6.798995 1.744647
RightLeg 1.464036 -0.000000 -0.000000
RightFoot -12.559150 -11.608712 13.931172
RightToeBase 11.343956 -0.000000 -0.000000
1567
root 3.799982 32.207685 -0.196563 -4.833518 -3.823876 -0.720089
Spine 2.031266 6.746582 -1.796237
Head 12.553484 -27.508188 2.272804
LeftShoulder -3.119252 -8.091807 26.335109
LeftArm 0.523846 43.297658 -99.636981
LeftForeArm 1.346354 0.000000 11.045827
LeftHand 10.111705 0.000000 -5.745643
LeftHandThumb1 -26.253704 0.000000 33.147579
RightShoulder -9.058107 -1.909828 -25.173930
RightArm 16.995084 55.956158 84.118838
RightForeArm 5.157381 -0.000000 122.292125
RightHand 28.286840 -0.000000 -21.424821
RightHandThumb1 -24.326973 -0.000000 -32.862282
LeftUpLeg 11.911734 4.080444 -0.848553
LeftLeg 2.543037 -0.000000 -0.000000
LeftFoot -22.800838 19.148514 -23.791121
LeftToeBase 15.895797 -0.000000 -0.000000
RightUpLeg 9.314324 -6.782824 1.759749
RightLeg 1.462688 -0.000000 -0.000000
RightFoot -12.534856 -11.595394 13.914105
RightToeBase 11.328347 -0.000000 -0.000000
1568
root 3.798440 32.207465 -0.198480 -4.834290 -3.878721 -0.726190
Spine 2.022307 6.814163 -1.797416
Head 12.619716 -27.622467 2.248915
LeftShoulder -3.126101 -8.088086 26.363643
LeftArm 0.586045 43.316647 -99.614527
LeftForeArm 1.367591 -0.000000 11.065579
LeftHand 10.126452 -0.000000 -5.574463
LeftHandThumb1 -26.253704 0.000000 33.147579
RightShoulder -8.901561 -1.568043 -25.099414
RightArm 16.793320 56.033979 83.795592
RightForeArm 5.268176 -0.000000 122.273362
RightHand 28.229014 0.000000 -21.209239
RightHandThumb1 -24.326973 -0.000000 -32.862282
LeftUpLeg 11.928493 4.148643 -0.830707
LeftLeg 2.519239 -0.000000 -0.000000
LeftFoot -22.818978 19.159124 -23.786701
LeftToeBase 16.084583 -0.000000 -0.000000
RightUpLeg 9.310841 -6.743114 1.768935
RightLeg 1.453036 -0.000000 -0.000000
RightFoot -12.511215 -11.568212 13.916769
RightToeBase 11.272640 -0.000000 -0.000000
1569
root 3.796303 32.207917 -0.200893 -4.833485 -3.930904 -0.734600
Spine 2.006584 6.891041 -1.785432
Head 12.721999 -27.743991 2.176586
LeftShoulder -3.117465 -8.077232 26.352943
LeftArm 0.661236 43.316678 -99.546512
LeftForeArm 1.363671 0.000000 11.086486
LeftHand 10.134643 -0.000000 -5.680953
LeftHandThumb1 -26.253704 0.000000 33.147579
RightShoulder -9.060706 -1.989060 -25.304350
RightArm 17.609496 55.454358 84.922012
RightForeArm 4.996958 -0.000000 122.117725
RightHand 28.149846 -0.000000 -21.839281
RightHandThumb1 -24.326973 -0.000000 -32.862282
LeftUpLeg 11.928211 4.201260 -0.813330
LeftLeg 2.528746 -0.000000 -0.000000
LeftFoot -22.817692 19.120468 -23.841379
LeftToeBase 15.878273 -0.000000 -0.000000
RightUpLeg 9.304775 -6.728181 1.779293
RightLeg 1.443018 -0.000000 -0.000000
RightFoot -12.487862 -11.534179 13.909265
RightToeBase 11.373672 -0.000000 -0.000000
